<svg viewBox="240 896 1520 220" xmlns:xlink="http://www.w3.org/1999/xlink" xmlns="http://www.w3.org/2000/svg" style="max-height: 500px" width="1520" height="220">
  <defs>
    <clipPath id="clip-TCG_WM1_White">
      <rect height="2000" width="2000"/>
    </clipPath>
  </defs>
  <g clip-path="url(#clip-TCG_WM1_White)" id="TCG_WM1_White">
    <g transform="translate(186.891 647.98)" data-name="Group 215" id="Group_215">
      <path fill="#fff" transform="translate(655.64 0.062)" d="M664.826,247.274h27.027v53.17c.212-.123.343-.194.466-.273a59.663,59.663,0,0,1,32.535-9.452c1.658,0,3.319-.106,4.977-.081a52.59,52.59,0,0,1,32.354,11.231,59.991,59.991,0,0,1,21.156,31.669,59.154,59.154,0,0,1,2.21,20.113c-1.1,17.23-8.035,31.686-20.948,43.169a51.327,51.327,0,0,1-24.947,12.134c-2.43.464-4.914.641-7.372.961a54.378,54.378,0,0,1-8.121.476c-17.729-.345-32.57-7.1-44.415-20.276a58.1,58.1,0,0,1-13.755-27.5,60.394,60.394,0,0,1-1.18-14.712c.01-.279.01-.56.01-.838q0-49.529,0-99.06ZM694.475,349.21a37.391,37.391,0,0,0,1,9.284,31.455,31.455,0,0,0,11.031,17.55,30.359,30.359,0,0,0,23.355,6.5,28.467,28.467,0,0,0,13.1-4.9,32.7,32.7,0,0,0,12.9-18.234,25.817,25.817,0,0,0,1.217-10.274,61.4,61.4,0,0,0-.9-6.209,32.1,32.1,0,0,0-7.289-14.412,29.522,29.522,0,0,0-20.263-10.526,23.2,23.2,0,0,0-5.8.021,53.689,53.689,0,0,0-5.306.936,29.264,29.264,0,0,0-12.76,7.164A32.561,32.561,0,0,0,694.475,349.21Z" data-name="Path 735" id="Path_735"/>
      <path fill="#fff" transform="translate(502.272 22.545)" d="M536.965,407.4c6.745-3.418,13.258-6.77,19.843-9.972a2.641,2.641,0,0,1,2.468.649c8.3,12.654,28.731,14.808,39.636,10.357,11.138-4.546,16.027-13.514,17.1-24.936.308-3.25.048-6.554.048-10.045-3.077,2.168-5.849,4.421-8.891,6.215A54.336,54.336,0,0,1,535.5,365.44a62.238,62.238,0,0,1,3.273-79.205,54.194,54.194,0,0,1,78.477-2.6c.593.583,1.236,1.113,2.276,2.043.312-5.433.6-10.391.888-15.463H643c.044,1,.119,1.9.119,2.809q.006,53.63,0,107.258c0,12.242-2.655,23.684-10.2,33.635-7.584,10-17.846,15.769-29.936,18.222-15.809,3.208-31.272,2.2-45.9-5.251-8.27-4.213-14.608-10.559-19.645-18.268a7.684,7.684,0,0,1-.474-1.228m77.289-79.7c-.27-2.112-.474-4.234-.822-6.333-3.3-20.013-24.689-31.686-43.086-23.532-14.962,6.633-22.485,24.285-17.232,40.42,5.345,16.4,21.53,25.284,38.115,20.908,13.239-3.491,22.876-16.745,23.024-31.463" data-name="Path 736" id="Path_736"/>
      <path fill="#fff" transform="translate(44.706 0)" d="M99.409,247.217h28.3v56.337c1.128-.853,1.785-1.315,2.405-1.825,23.838-19.522,61.139-12.442,76.228,14.425a59.082,59.082,0,0,1,7.752,29.079c.094,20.3.037,40.607.037,60.912,0,.5-.069,1-.121,1.692h-28.4v-3.331c0-19.108.033-38.219-.01-57.327-.027-11.943-5.07-21.183-15.713-26.757a28.648,28.648,0,0,0-42.1,25.184c-.2,19.7-.048,39.411-.052,59.119v3.156H99.409Z" data-name="Path 737" id="Path_737"/>
      <path fill="#fff" transform="translate(290.824 23.687)" d="M327.3,269.137h28.413v3.235c0,19.283-.042,38.568.019,57.852.042,12.919,7.355,23.644,18.8,27.839a28.775,28.775,0,0,0,39.032-27.029c.156-19.537.037-39.078.04-58.617v-3.235H441.93v115.01H416.456c-.285-3.937-.57-7.892-.893-12.367-.94.724-1.648,1.213-2.293,1.775A51.357,51.357,0,0,1,330.4,350.756a60.148,60.148,0,0,1-3.208-18.827q-.056-30.46-.019-60.923c0-.578.075-1.159.125-1.868" data-name="Path 738" id="Path_738"/>
      <path fill="#fff" transform="translate(190.761 22.557)" d="M324.052,343.436c7.727,4.592,15.114,8.984,22.483,13.364-10.237,20.538-34.066,33.167-58.7,30.346a60.352,60.352,0,0,1-53.229-57.359c-1.053-27,18.035-52.891,43.995-59.608,28.307-7.32,55.648,5.168,68.043,28.542-7.44,4.5-14.9,9.02-22.608,13.684-6.5-11.188-15.979-17.325-28.889-17.384a30.663,30.663,0,0,0-22.6,9.246c-12.8,12.825-12.455,35.221.7,47.738a30.59,30.59,0,0,0,17.51,8.283,32.762,32.762,0,0,0,19.163-3.138c6.086-3,10.5-7.746,14.132-13.715" data-name="Path 739" id="Path_739"/>
      <path fill="#fff" transform="translate(0 6.842)" d="M123.232,285.83c0,7.682-.033,14.931.021,22.175.017,2.027-1.282,1.831-2.58,1.831q-15.246-.006-30.5,0c-3.533,0-3.537,0-3.539,3.421,0,15.359.248,30.725-.075,46.077-.283,13.572,9.128,19.7,19.77,20.471,7.343.531,14.3-.5,20.5-5.214l12.511,15.929a39.132,39.132,0,0,1-15.116,9.3c-16.832,5.691-33.194,4.831-48.445-4.752-11.5-7.222-17.65-17.848-17.675-31.586-.067-35.753,0-71.507-.073-107.26,0-2.232.778-2.7,2.811-2.676q11.529.144,23.062,0c2.126-.029,2.792.643,2.767,2.767-.1,8.786.073,17.579-.108,26.366-.056,2.688.8,3.244,3.327,3.206,10.076-.144,20.157-.058,30.238-.058Z" data-name="Path 740" id="Path_740"/>
      <path fill="#fff" transform="translate(374.412 22.392)" d="M465.924,302.9c-2.131-4.763-4.771-8.7-8.986-11.308-4.382-2.707-8.976-3.776-13.813-1.182-6.2,3.327-7.619,11.188-2.434,15.91a35.376,35.376,0,0,0,10.172,6.146c8.268,3.443,16.7,6.465,24.158,11.591,12.567,8.641,17.974,21.05,14.866,35.368-2.326,10.717-9.18,18.07-18.7,23.057-18.74,9.814-43.993,5.614-58.018-9.6a41.55,41.55,0,0,1-8.306-13.986c-.657-1.775-.479-2.667,1.552-3.329,5.428-1.771,10.8-3.726,16.131-5.788,2.081-.807,3.017-.456,4.078,1.619,3.672,7.187,9.015,12.623,17.207,14.5A14.176,14.176,0,0,0,461,355.887a11.249,11.249,0,0,0-4.355-12.719,45.278,45.278,0,0,0-10.47-5.734c-7.983-3.115-15.821-6.392-22.535-11.862-7.619-6.209-12.525-14-13.189-23.938-.853-12.806,4.65-22.625,15.946-28.29,16.135-8.091,32.2-7.137,47.282,3.117a33.472,33.472,0,0,1,11.6,14.367c.491,1.1.9,2.02-.558,2.736-6.19,3.046-12.361,6.132-18.8,9.332" data-name="Path 741" id="Path_741"/>
      <rect fill="#fff" transform="translate(1156.913 247.298)" height="160.611" width="28.098" data-name="Rectangle 1230" id="Rectangle_1230"/>
      <path fill="#fff" transform="translate(251.33 23.635)" d="M318.944,384.241H290.618V269.156h25.5c.318,4.675.635,9.317.995,14.581,5.757-4.746,11.612-8.7,18.376-11.088a61.447,61.447,0,0,1,20.894-3.56,5.641,5.641,0,0,1,.354,1.29c.025,7.251-.019,14.5.058,21.751.021,1.871-1.024,2.027-2.434,2.087-6.452.281-12.715,1.4-18.528,4.382-10.886,5.582-16.564,14.677-16.778,26.711-.331,18.59-.1,37.189-.114,55.784v3.148" data-name="Path 742" id="Path_742"/>
      <rect fill="#fff" transform="translate(745.597 292.833)" height="115.037" width="28.255" data-name="Rectangle 1231" id="Rectangle_1231"/>
      <rect fill="#fff" transform="translate(1157.452 247.298)" height="160.611" width="28.098" data-name="Rectangle 1232" id="Rectangle_1232"/>
      <path fill="#fff" transform="translate(720.775 22.392)" d="M800.434,340.6h-43.9c-1.369,0-1.59.337-1.111,1.633a31.378,31.378,0,0,0,7.118,11.256,34.5,34.5,0,0,0,10.185,7.184,33.241,33.241,0,0,0,15.765,3.148,38.507,38.507,0,0,0,10.638-2.068,39.825,39.825,0,0,0,10.451-5.322,30.827,30.827,0,0,0,8.033-8.1c.6-.92.672-.9,1.54-.139q8.458,7.415,16.911,14.841c.88.776.88.926.131,1.841a62.411,62.411,0,0,1-21.177,16.709,63.567,63.567,0,0,1-26.276,6.462,64.709,64.709,0,0,1-18.836-2.187,62.688,62.688,0,0,1-16.333-6.97,59.194,59.194,0,0,1-17.182-15.773,48.221,48.221,0,0,1-5.5-9.334c-1.071-2.484-2.214-4.958-3.034-7.53a74.369,74.369,0,0,1-1.829-7.763,52.107,52.107,0,0,1-.941-12.546,67.7,67.7,0,0,1,1.4-11.136,58.241,58.241,0,0,1,3.5-10.8,53.978,53.978,0,0,1,4.567-8.476,58.617,58.617,0,0,1,9.5-11.269,59.331,59.331,0,0,1,11.862-8.491A69.807,69.807,0,0,1,765.9,271.4a63.394,63.394,0,0,1,22.248-3.458,53.635,53.635,0,0,1,12.486,1.575,70.623,70.623,0,0,1,7.742,2.468,64.04,64.04,0,0,1,7.343,3.279,59.571,59.571,0,0,1,28.3,32.97,57.28,57.28,0,0,1,2.418,8.93,53.741,53.741,0,0,1,.857,13.308c-.16,2.382-.475,4.754-.77,7.122a12.132,12.132,0,0,1-.562,2.343,1.3,1.3,0,0,1-.741.614,2.848,2.848,0,0,1-.974.046h-43.82m-14.028-23.582H816.1c.277,0,.553.006.83-.01.5-.029.757-.243.583-.784-.36-1.121-.689-2.253-1.082-3.364a31.252,31.252,0,0,0-5.855-9.941,31.678,31.678,0,0,0-11.314-8.468,28.492,28.492,0,0,0-8.164-2.322,32.088,32.088,0,0,0-18.008,2.811,33.252,33.252,0,0,0-10.4,7.742,31.669,31.669,0,0,0-5.651,8.674c-.661,1.511-1.13,3.111-1.646,4.684-.245.747-.06.955.724.978.227.006.454,0,.68,0h29.613" data-name="Path 743" id="Path_743"/>
      <path fill="#fff" transform="translate(420.684 22.263)" d="M522.731,340.479h-43.9c-1.369,0-1.59.337-1.111,1.633a31.423,31.423,0,0,0,7.118,11.256,34.5,34.5,0,0,0,10.185,7.184,33.237,33.237,0,0,0,15.763,3.148,38.58,38.58,0,0,0,10.64-2.068,39.824,39.824,0,0,0,10.451-5.322,30.806,30.806,0,0,0,8.033-8.1c.6-.918.672-.9,1.54-.139q8.458,7.419,16.911,14.843c.88.774.88.926.131,1.841a62.416,62.416,0,0,1-21.176,16.709,63.6,63.6,0,0,1-26.276,6.462,64.792,64.792,0,0,1-18.836-2.187,62.7,62.7,0,0,1-16.333-6.97,59.223,59.223,0,0,1-17.182-15.773,48.315,48.315,0,0,1-5.5-9.334c-1.072-2.484-2.214-4.958-3.034-7.53a74.308,74.308,0,0,1-1.829-7.763,52.107,52.107,0,0,1-.941-12.546,67.746,67.746,0,0,1,1.4-11.138,58.251,58.251,0,0,1,3.5-10.8,54.264,54.264,0,0,1,4.567-8.478,59.069,59.069,0,0,1,21.364-19.758,70.048,70.048,0,0,1,9.985-4.369,63.44,63.44,0,0,1,22.248-3.456,53.639,53.639,0,0,1,12.486,1.575,71.045,71.045,0,0,1,7.742,2.466,64.041,64.041,0,0,1,7.343,3.281,59.6,59.6,0,0,1,28.3,32.97,57.767,57.767,0,0,1,2.418,8.93,53.734,53.734,0,0,1,.855,13.308c-.158,2.38-.474,4.752-.77,7.122a12.117,12.117,0,0,1-.562,2.341,1.286,1.286,0,0,1-.741.616,2.849,2.849,0,0,1-.974.044q-21.909,0-43.82,0M508.7,316.9h29.69c.277,0,.553.006.83-.01.5-.029.757-.243.585-.784-.362-1.121-.693-2.253-1.084-3.364a31.253,31.253,0,0,0-5.855-9.941,31.659,31.659,0,0,0-11.314-8.468,28.491,28.491,0,0,0-8.164-2.322,32.1,32.1,0,0,0-18.008,2.811,33.246,33.246,0,0,0-10.4,7.74,31.73,31.73,0,0,0-5.651,8.674c-.662,1.513-1.13,3.113-1.646,4.686-.245.747-.06.955.724.978.227.006.454,0,.68,0H508.7" data-name="Path 744" id="Path_744"/>
      <path fill="#fff" transform="translate(108.31 22.392)" d="M233.662,340.6h-43.9c-1.369,0-1.59.337-1.111,1.633a31.4,31.4,0,0,0,7.118,11.256,34.48,34.48,0,0,0,10.187,7.184,33.233,33.233,0,0,0,15.763,3.148,38.493,38.493,0,0,0,10.638-2.068,39.792,39.792,0,0,0,10.451-5.322,30.8,30.8,0,0,0,8.033-8.1c.6-.92.672-.9,1.54-.139q8.461,7.415,16.911,14.841c.88.776.88.926.131,1.841a62.391,62.391,0,0,1-21.177,16.709,63.567,63.567,0,0,1-26.276,6.462,64.717,64.717,0,0,1-18.836-2.187,62.678,62.678,0,0,1-16.331-6.97,59.169,59.169,0,0,1-17.182-15.773,48.11,48.11,0,0,1-5.5-9.334c-1.074-2.484-2.216-4.958-3.036-7.53a74.339,74.339,0,0,1-1.829-7.763,52.108,52.108,0,0,1-.94-12.546,67.691,67.691,0,0,1,1.4-11.136,58.229,58.229,0,0,1,3.5-10.8,54.143,54.143,0,0,1,4.567-8.476,58.617,58.617,0,0,1,9.5-11.269,59.385,59.385,0,0,1,11.862-8.491,69.823,69.823,0,0,1,9.987-4.367,63.375,63.375,0,0,1,22.246-3.458,53.621,53.621,0,0,1,12.486,1.575,70.616,70.616,0,0,1,7.742,2.468,64.063,64.063,0,0,1,7.345,3.279,59.608,59.608,0,0,1,28.3,32.97,57.52,57.52,0,0,1,2.418,8.93,53.636,53.636,0,0,1,.855,13.308c-.158,2.382-.474,4.754-.77,7.122a11.83,11.83,0,0,1-.562,2.343,1.284,1.284,0,0,1-.741.614,2.846,2.846,0,0,1-.974.046h-43.82m-14.028-23.582h29.69c.277,0,.553.006.83-.01.5-.029.757-.243.585-.784-.362-1.121-.691-2.253-1.082-3.364a31.26,31.26,0,0,0-5.857-9.941,31.659,31.659,0,0,0-11.314-8.468,28.491,28.491,0,0,0-8.164-2.322,32.1,32.1,0,0,0-18.008,2.811,33.252,33.252,0,0,0-10.4,7.742,31.762,31.762,0,0,0-5.651,8.674c-.662,1.511-1.13,3.111-1.646,4.684-.246.747-.058.955.724.978.227.006.454,0,.68,0h29.613" data-name="Path 745" id="Path_745"/>
      <g transform="translate(1192.537 290.625)" data-name="Group 215" id="Group_215-2">
        <path fill="#fff" transform="translate(-563.581 -233.747)" d="M647.178,305.5a4.884,4.884,0,0,1-.3,3.331l0,0q-3.639-4.344-6.8-8.1v0l.073-.014c.046-.013.087-.019.125-.031l.029-.006c.065-.017.123-.031.171-.042h.008a.63.63,0,0,1,.069-.017c.168-.025.337-.056.505-.087.493-.085.982-.181,1.473-.275l.012,0c.657-.125,1.317-.254,1.981-.36a1.5,1.5,0,0,1,.2-.023,2.022,2.022,0,0,1,1.022.139,12.7,12.7,0,0,1,1.663,1.117,1.581,1.581,0,0,1-.071.568A5.711,5.711,0,0,0,647.178,305.5Z" data-name="Path 746" id="Path_746"/>
        <path fill="#fff" transform="translate(-562.953 -245.004)" d="M653.535,296.192c-.1.117-.2.241-.291.362l-.006,0-3.348-1.02v0c-.1.318-.185.624-.273.915h-.012c-.786.069-2.986-1.556-3.115-2.389-.164-1.061-.651-1.344-1.652-1.121-.533.119-1.071.221-1.6.318-.183.033-.364.069-.543.1-.347.058-.693.114-1.034.175l-.01,0c-.341.052-.674.11-1,.171.177-.285.356-.564.529-.845l.008-.008c.537-.843,1.072-1.683,1.587-2.536.042-.071.085-.135.125-.2l.006-.008a2.171,2.171,0,0,1,.281-.329,1.175,1.175,0,0,1,.6-.331,1.348,1.348,0,0,1,1.121.41c.768.655,1.534,1.33,2.374,2.06-.117.092-.221.175-.31.25-.175.133-.314.25-.458.364.5.6.778.878,1.026.78a.392.392,0,0,0,.131-.1.565.565,0,0,0,.1-.116.778.778,0,0,1,.048-.077,6.212,6.212,0,0,0,.456-.972l0,0c.662.121.828,1.506,1.558,1.382a1.406,1.406,0,0,0,.691-.443,2.072,2.072,0,0,0,.148-.152l.006-.006c.3.836.66,1.431,1.4,1.286a2.187,2.187,0,0,0,.78-.337l.008,0C653.119,294.661,653.327,295.426,653.535,296.192Z" data-name="Path 747" id="Path_747"/>
        <path fill="#fff" transform="translate(-578.515 -251.892)" d="M628.038,284.45a6.6,6.6,0,0,1-1.5.66c-.116-.137-.212-.245-.291-.337a5.146,5.146,0,0,1,2.568-1.712A2.238,2.238,0,0,1,628.038,284.45Z" data-name="Path 748" id="Path_748"/>
        <path fill="#fff" transform="translate(-588.824 -268.08)" d="M649.676,268.08a60.574,60.574,0,0,0-32.965,9.7c6.872,8.029,11.3,13.2,17.814,20.808.25-.125.5-.25.753-.366a1.9,1.9,0,0,1,.185-.087c.231-.11.466-.212.7-.314.277-.123.551-.239.836-.354s.564-.223.847-.329c.674-.25,1.365-.476,2.06-.682.248-.075.493-.144.739-.21.037-.008.081-.021.123-.031.275-.075.547-.144.828-.212l.2-.046c.25-.06.5-.117.76-.171l.231-.044c.285-.062.572-.114.864-.164.031-.006.06-.01.087-.015.318-.06.641-.11.965-.156l.031,0q.459-.075.924-.125l.189-.023q1.021-.125,2.07-.187c.364-.025.734-.044,1.107-.056,2.979-.11,3.714.576,4.353,3.689l-.006,0-.372.206a25.013,25.013,0,0,1-2.74,1.431,2.855,2.855,0,0,0-.323.148,3.232,3.232,0,0,0-.531.356.891.891,0,0,0-.117.1l-.11.11a3.647,3.647,0,0,0-.7,1.092,4.23,4.23,0,0,1-.793,1.136.834.834,0,0,1-.268.193.145.145,0,0,1-.083,0,4.434,4.434,0,0,1-2.174-1.325c-1.051-1.34-.587-2.952-.252-4.434.181-.805.181-1.057-.737-1.211a4.859,4.859,0,0,0-1.427-.077,1.642,1.642,0,0,0-.657.225,1.178,1.178,0,0,0-.5.674c-.252.791.356,1.862.583,2.809.166.065.329.133.5.2l-.006,0c-.3.142-.591.281-.88.418s-.564.26-.824.385l0,0a6.617,6.617,0,0,1-.712,1.209.7.7,0,0,1-.231.154.568.568,0,0,1-.148.037,4.006,4.006,0,0,1-1.583-.36,7.153,7.153,0,0,1-1.086-.5l.014.017c.406.472.993,1.159,1.866,2.185l.079-.054.331-.214c.139-.092.287-.189.447-.293l.01-.006c.158.526.277.972.429,1.409.129.366.208.92.468,1.044a2.33,2.33,0,0,1,1.367,1.814l0,0c3.608,4.272,9.481,11.242,19.129,22.727l.01.01a16.219,16.219,0,0,0,.221-1.987c-.092-.814-.281-1.621-.293-2.434a5.132,5.132,0,0,1,.289-2.012,8.855,8.855,0,0,1,.841-1.65,1.167,1.167,0,0,1,.106-.139,2.685,2.685,0,0,1,.208-.248,1.429,1.429,0,0,1,.112-.112.989.989,0,0,1,.11-.1,3.827,3.827,0,0,0,.281-.266c1.3-1.377,1.082-3.429,2.355-4.773a4.083,4.083,0,0,1-2.295-3.833.415.415,0,0,1,.125-.208,1.144,1.144,0,0,1,.2-.16.7.7,0,0,0,.073-.042,1.413,1.413,0,0,1,.177-.089,1.4,1.4,0,0,1,.474-.137,7.471,7.471,0,0,1,1.756.243h0c.042-.06.083-.125.121-.189s.1-.137.137-.206c-.693-.791-1.39-1.581-2.124-2.422.1-.087.212-.189.347-.308s.281-.25.456-.4l.389-.345.008,0a.314.314,0,0,0-.06.013,1.709,1.709,0,0,0,.2-.345,1.411,1.411,0,0,0,.179-.25,1.63,1.63,0,0,0,.235-.454c.089-.077.177-.152.26-.225l.475-.408c.079-.069.154-.133.231-.2l.01-.008c-.3-.741-.578-1.429-.866-2.158-1.81-.283-2.459-1.14-2.6-3.117-.046-.589-.585-1.138-.9-1.71-.246-.451-.5-.905-.753-1.357.115-.148.227-.293.337-.441l0,0a17.184,17.184,0,0,1,2.911.947,34.434,34.434,0,0,1,18.334,29.289c.037,1.038.044,2.091,0,3.337a10.034,10.034,0,0,1-.158,1.4c-.065.541-.148,1.072-.245,1.6,0,.037-.013.075-.019.112a31.349,31.349,0,0,1-4.627,11.666,24.844,24.844,0,0,1-2.135,3.135,73.989,73.989,0,0,1,9.119,28.839c.221-.133.437-.268.651-.41A60.853,60.853,0,0,0,649.676,268.08ZM656.59,301.2a2.391,2.391,0,0,1-.882.329c-.822.121-1.517-.37-2.093-1.456a1.116,1.116,0,0,1,.079-.123,3.176,3.176,0,0,1,.227-.3,1.431,1.431,0,0,1,.608-.441.679.679,0,0,1,.071-.019c.961-.246,1.866,1.153,2.957,1.255A5.334,5.334,0,0,1,656.59,301.2Zm5.98,6.5a1.282,1.282,0,0,1-.314.254,1.342,1.342,0,0,1-.239.114l-.008,0a2.127,2.127,0,0,1-.291.071c-.3.046-.389-.037-.343-.333a2.346,2.346,0,0,1,.477-1.34,2.154,2.154,0,0,1,.531-.41.228.228,0,0,1,.069-.025.536.536,0,0,1,.6.529A2.106,2.106,0,0,1,662.57,307.7Zm2.62.568a.319.319,0,0,1-.116.092.909.909,0,0,1-.281.092.339.339,0,0,0-.064.006c-.235.042-.47.083-.7.121l-.012,0c-.231.035-.466.073-.7.106-.06.012-.129-.029-.193-.046.021-.048.027-.1.046-.15l.023-.046a.886.886,0,0,1,.079-.106l.031-.035.033-.044c.087-.127.064-.216-.079-.3-.125-.073-.175-.175-.11-.3a3.794,3.794,0,0,1,.391-.674c.241-.3.194-.545-.156-.716a1.117,1.117,0,0,1-.383-.356,5.469,5.469,0,0,1-.337-.67.973.973,0,0,1,.452-1.173.606.606,0,0,1,.2-.069l.013,0c.212-.029.268.023.256.3a.318.318,0,0,0,.077.154,1.5,1.5,0,0,1,.447.97,1.368,1.368,0,0,0,.578.97.859.859,0,0,1,.246.368,1.436,1.436,0,0,0,.508.658.261.261,0,0,1,.073.235,3.226,3.226,0,0,1-.266.537A.228.228,0,0,1,665.19,308.267Z" data-name="Path 749" id="Path_749"/>
        <path fill="#fff" transform="translate(-603.308 -261.138)" d="M671.465,424.425c-18.955-22.261-38.481-43.566-56.116-66.332-19.8-25.565-14.49-63.6,10.844-83.589,4.919,6.142,9.756,12.411,14.835,18.48q1.042,1.251,2.1,2.5c.759.918,1.534,1.829,2.305,2.746l.019.023,0,0c.193.239.393.474.591.709l.006,0,0,0,.019.027c.341.41.678.807,1.024,1.211l.006.013c.114.135.231.277.345.408l.006.008q2.16,2.562,4.326,5.122l0,.008c9.084,10.738,18.205,21.453,27.2,32.258a59.581,59.581,0,0,1,4.59,6.3l.008.012c.466.726.907,1.465,1.332,2.208.208.358.41.722.61,1.086C699.543,373.173,694.148,406.777,671.465,424.425Z" data-name="Path 750" id="Path_750"/>
      </g>
    </g>
  </g>
</svg>